<?xml version="1.0" encoding="utf-8"?>
<!-- Generator: Adobe Illustrator 15.1.0, SVG Export Plug-In . SVG Version: 6.00 Build 0)  -->
<!DOCTYPE svg PUBLIC "-//W3C//DTD SVG 1.1//EN" "http://www.w3.org/Graphics/SVG/1.1/DTD/svg11.dtd">
<svg version="1.1" id="Layer_1" xmlns="http://www.w3.org/2000/svg" xmlns:xlink="http://www.w3.org/1999/xlink" x="0px" y="0px"
	 width="6.629px" height="23.814px" viewBox="309.371 45.878 6.629 23.814" enable-background="new 309.371 45.878 6.629 23.814"
	 xml:space="preserve">
<title>Serving Spoon</title>
<g>
	<title>Layer 1</title>
	<g id="layer1">
		<g id="g3652" transform="rotate(89.9249, 323.559, 71.9414)">
			<path id="path2847-5" stroke="#000000" stroke-width="3" stroke-linecap="round" stroke-linejoin="round" d="M306.048,82.133
				c0.139,0.229,0.401,0.335,0.719,0.335l12.129-0.305c0.6,0,0.9,0.313,0.9,0.626c0,0.309-0.3,0.626-0.9,0.625
				c-4.043-0.107-8.086-0.214-12.128-0.32c-0.34,0-0.597,0.109-0.708,0.33c-0.465,0.796-1.836,1.18-3.454,1.18
				c-2.001,0-3.624-0.812-3.624-1.814s1.623-1.815,3.624-1.815C304.21,80.974,305.571,81.351,306.048,82.133L306.048,82.133z"/>
		</g>
	</g>
</g>
</svg>
